<svg width="32" height="32" viewBox="0 0 128 128"><path fill="#fcc21b" d="M38.87 49.35c-2.17-11.9-4.37-24.13-4.44-36.28c-.01-1.51-.53-4.79.99-5.64c1.13-.64 2.97-.81 4.25-.79c1.05.01 1.02.49 1.34 1.35c2.07 5.5 2.24 11.59 3.04 17.36c.86 6.12 1.6 12.25 2.57 18.35c1.24 7.73 2.42 15.54 2.31 23.34c-.01.86.02 1.96-.58 2.43c-1.16.91-3.25.52-4.58 0c-1.76-.7-2.08-4.14-2.57-6.04c-.56-2.2-1-4.25-1.31-6.5c-.18-1.38-.6-2.73-.78-4.11c-.13-1.21-.01-2.26-.24-3.47z"/><path fill="#f79329" d="M39.49 6.64h.18c1.05.01 1.02.49 1.34 1.35c2.07 5.5 2.24 11.59 3.04 17.36c.86 6.12 1.6 12.25 2.57 18.35c1.24 7.73 2.42 15.54 2.31 23.34c-.01.86.02 1.96-.58 2.43c-.51.4-1.18.55-1.9.55c-.93 0-1.92-.25-2.67-.55c-1.76-.7-2.08-4.14-2.57-6.04c-.56-2.2-1-4.25-1.31-6.5c-.18-1.38-.6-2.73-.78-4.11c-.14-1.21-.02-2.25-.24-3.46c-2.17-11.9-4.37-24.13-4.44-36.28c-.01-1.51-.53-4.79.99-5.64c1.07-.62 2.79-.8 4.06-.8m0-6.02c-1.94 0-4.73.27-7.03 1.57c-4.51 2.53-4.21 7.94-4.08 10.25c.01.25.03.48.03.67c.08 12.91 2.45 25.88 4.54 37.32c.04.24.06.59.07 1.04c.02.56.04 1.26.13 2.06c.12 1.01.32 1.88.49 2.66c.12.56.24 1.09.29 1.52c.33 2.35.77 4.57 1.45 7.22c.08.31.15.65.22 1.01c.58 2.76 1.54 7.38 5.96 9.13c.93.37 2.78.97 4.89.97c2.15 0 4.1-.63 5.63-1.83c2.81-2.2 2.85-5.49 2.87-6.9v-.16c.11-8.08-1.01-15.83-2.38-24.39c-.64-4.03-1.19-8.19-1.74-12.22c-.26-2.01-.53-4.01-.81-6.02c-.2-1.42-.36-2.85-.51-4.29c-.52-4.7-1.05-9.55-2.85-14.35l-.05-.15C45.16 1.34 41.69.65 39.76.63h-.27V.62z"/><path fill="#fcc21b" d="M57.41 48.81c-.71-12.08-1.4-24.49-.01-36.55c.17-1.5.05-4.82 1.66-5.48c1.2-.5 3.05-.44 4.32-.27c1.05.14.95.61 1.16 1.5c1.39 5.72.82 11.78.92 17.6c.1 6.18.1 12.36.33 18.53c.28 7.82.51 15.72-.54 23.44c-.12.86-.23 1.95-.86 2.35c-1.27.76-3.3.12-4.55-.56c-1.66-.9-1.56-4.35-1.82-6.3c-.29-2.25-.48-4.34-.51-6.61c-.01-1.4-.27-2.78-.27-4.18c.01-1.23.24-2.24.17-3.47z"/><path fill="#f79329" d="M61.6 6.39c.64 0 1.25.05 1.79.12c1.05.14.95.61 1.16 1.5c1.39 5.72.82 11.78.92 17.6c.1 6.18.1 12.36.33 18.53c.28 7.82.51 15.72-.54 23.44c-.12.86-.23 1.95-.86 2.35c-.42.24-.9.35-1.41.35c-1.08 0-2.29-.45-3.14-.91c-1.66-.9-1.56-4.35-1.82-6.3c-.29-2.25-.48-4.34-.51-6.61c-.01-1.4-.27-2.78-.27-4.18c0-1.22.24-2.24.17-3.47c-.71-12.08-1.4-24.49-.01-36.55c.17-1.5.05-4.82 1.66-5.48c.7-.29 1.63-.39 2.53-.39m0-6.02c-1.84 0-3.46.28-4.83.84c-4.79 1.98-5.15 7.39-5.3 9.71c-.01.24-.02.47-.05.66c-1.49 12.86-.71 26-.02 37.59c.01.23-.02.59-.06 1.04c-.06.55-.12 1.25-.12 2.05c0 1.02.08 1.91.16 2.7c.05.57.1 1.11.11 1.54c.03 2.33.2 4.59.56 7.34c.04.29.06.63.09 1c.21 2.63.62 7.54 4.82 9.81c1.12.61 3.39 1.64 6.01 1.64c1.65 0 3.18-.41 4.51-1.21c3.07-1.87 3.51-5.11 3.7-6.5l.02-.16c1.08-7.93.91-15.78.59-24.5c-.15-4.08-.2-8.28-.24-12.34c-.02-2.03-.05-4.05-.08-6.08c-.02-1.41-.01-2.85.01-4.29c.06-4.73.11-9.63-1.09-14.63l-.04-.17C69.44 1.89 66.09.78 64.17.53c-.85-.1-1.74-.16-2.57-.16z"/><path fill="#fcc21b" d="M79.21 28.37c-2.91 11.75-5.84 23.82-6.67 35.94c-.1 1.51-.82 4.75.64 5.69c1.09.7 2.91.99 4.19 1.05c1.07.05 1.05-.43 1.43-1.26c2.4-5.37 2.95-11.43 4.1-17.15c1.22-6.05 2.34-12.13 3.69-18.16c1.7-7.64 3.36-15.37 3.74-23.14c.04-.86.13-1.96-.43-2.47c-1.1-.98-3.22-.72-4.57-.28c-1.8.58-2.33 4-2.93 5.87c-.7 2.16-1.26 4.18-1.7 6.42c-.27 1.37-.77 2.68-1.03 4.06c-.23 1.19-.17 2.23-.46 3.43z"/><path fill="#f79329" d="M87.7 8.2c.83 0 1.64.18 2.2.67c.56.5.47 1.6.43 2.47c-.37 7.77-2.04 15.51-3.74 23.14c-1.35 6.04-2.47 12.11-3.69 18.16c-1.15 5.72-1.7 11.77-4.1 17.15c-.35.79-.36 1.27-1.28 1.27h-.15c-1.28-.06-3.1-.35-4.19-1.05c-1.46-.95-.75-4.18-.64-5.69c.83-12.12 3.76-24.19 6.67-35.94c.29-1.2.24-2.24.46-3.44c.26-1.37.76-2.69 1.03-4.06c.44-2.23 1-4.26 1.7-6.42c.6-1.87 1.13-5.28 2.93-5.87c.67-.22 1.54-.39 2.37-.39m0-6.02c-1.75 0-3.28.38-4.24.7c-4.53 1.47-5.82 6.22-6.51 8.78c-.09.35-.18.68-.27.96c-.82 2.52-1.42 4.78-1.87 7.09c-.08.43-.24.95-.39 1.49c-.23.77-.48 1.65-.66 2.63c-.15.81-.21 1.52-.27 2.09c-.04.45-.07.8-.13 1.03c-2.78 11.25-5.94 24.02-6.81 36.96c-.01.15-.04.37-.08.62c-.27 2.31-.91 7.7 3.44 10.53c2.43 1.56 5.54 1.93 7.17 2.02c.16 0 .3.01.44.01c1.81 0 5.08-.61 6.71-4.68l.06-.16c2.1-4.69 2.94-9.52 3.74-14.18c.25-1.42.48-2.83.77-4.21c.4-1.99.79-3.98 1.18-5.97c.79-3.98 1.59-8.09 2.48-12.07c1.9-8.48 3.49-16.16 3.88-24.16l.01-.19c.06-1.4.22-4.67-2.42-7.05c-1.16-1.05-3.15-2.24-6.23-2.24z"/><path fill="#fcc21b" d="M93.96 53.25c3.43-11.61 6.99-23.51 12.4-34.39c.67-1.35 1.69-4.51 3.42-4.59c1.3-.05 3.02.62 4.16 1.22c.93.49.69.9.59 1.81c-.64 5.85-3.23 11.36-5.12 16.87c-1.99 5.84-4.1 11.65-5.99 17.54c-2.38 7.45-4.85 14.97-8.46 21.87c-.4.77-.88 1.77-1.61 1.91c-1.46.29-3.14-1-4.09-2.06c-1.26-1.42.01-4.63.43-6.55c.49-2.21 1.02-4.24 1.77-6.39c.46-1.32.69-2.71 1.16-4.02c.42-1.17 1-2.04 1.34-3.22z"/><path fill="#f79329" d="M109.93 14.27c1.28 0 2.91.65 4.01 1.22c.93.49.69.9.59 1.81c-.64 5.85-3.23 11.36-5.12 16.87c-1.99 5.84-4.1 11.65-5.99 17.54c-2.38 7.45-4.85 14.97-8.46 21.87c-.4.77-.88 1.77-1.61 1.91c-.14.03-.29.04-.43.04c-1.34 0-2.81-1.15-3.66-2.11c-1.26-1.42.01-4.63.43-6.55c.49-2.21 1.02-4.24 1.77-6.39c.46-1.32.69-2.71 1.16-4.02c.41-1.15.99-2.02 1.33-3.21c3.43-11.61 6.99-23.51 12.4-34.39c.67-1.35 1.69-4.51 3.42-4.59h.16m0-6.02h-.39c-5.2.24-7.38 5.22-8.3 7.35c-.1.23-.19.43-.27.6c-5.75 11.58-9.49 24.21-12.77 35.34c-.07.23-.22.55-.4.95c-.24.51-.54 1.16-.82 1.93c-.34.94-.57 1.83-.77 2.61c-.14.55-.27 1.07-.41 1.48c-.77 2.21-1.38 4.4-1.97 7.08c-.06.28-.15.61-.25.97c-.73 2.73-1.97 7.29 1.19 10.85c1.11 1.25 4.11 4.13 8.16 4.13c.55 0 1.08-.06 1.61-.16c3.51-.71 5.03-3.61 5.68-4.86l.08-.15c3.72-7.13 6.21-14.56 8.86-22.84c1.23-3.82 2.59-7.72 3.9-11.48c.69-1.98 1.38-3.96 2.05-5.95c.46-1.32.95-2.65 1.45-3.99c1.66-4.45 3.39-9.04 3.95-14.17l.03-.15c.69-4.57-2.09-6.75-3.8-7.65c-1.7-.86-4.23-1.89-6.81-1.89z"/><path fill="#fcc21b" d="M28.91 42.79C34.75 53.4 40.69 64.32 44.6 75.81c.5 1.43 2.02 4.38.85 5.66c-.88.96-2.56 1.71-3.79 2.1c-1.01.32-1.12-.15-1.69-.86c-3.7-4.56-5.79-10.28-8.38-15.51c-2.75-5.53-5.4-11.12-8.24-16.6c-3.61-6.94-7.22-13.98-9.58-21.4c-.25-.82-.63-1.86-.22-2.49c.82-1.24 2.92-1.53 4.35-1.45c1.88.1 3.28 3.26 4.34 4.91c1.23 1.91 2.29 3.72 3.29 5.76c.62 1.26 1.44 2.4 2.05 3.66c.53 1.1.74 2.13 1.33 3.2z"/><path fill="#f79329" d="M17.46 25.25c.16 0 .31 0 .45.01c1.88.1 3.28 3.26 4.34 4.91c1.23 1.91 2.29 3.72 3.29 5.76c.62 1.26 1.44 2.4 2.05 3.66c.52 1.1.73 2.13 1.32 3.21c5.84 10.6 11.78 21.52 15.69 33.01c.5 1.43 2.02 4.38.85 5.66c-.88.96-2.56 1.71-3.79 2.1c-.22.07-.4.1-.55.1c-.53 0-.7-.4-1.14-.96c-3.7-4.56-5.79-10.28-8.38-15.51c-2.75-5.53-5.4-11.12-8.24-16.6c-3.61-6.94-7.22-13.98-9.58-21.4c-.25-.82-.63-1.86-.22-2.49c.74-1.11 2.53-1.46 3.91-1.46m0-6.02c-3.92 0-7.17 1.52-8.92 4.16c-1.97 2.99-.97 6.12-.55 7.46l.05.15c2.44 7.66 5.96 14.67 9.97 22.38c1.86 3.58 3.68 7.3 5.44 10.9c.91 1.87 1.83 3.73 2.75 5.59c.62 1.25 1.2 2.53 1.8 3.83c1.98 4.32 4.03 8.78 7.29 12.79l.08.11c1.52 2.05 3.45 3.08 5.74 3.08c.78 0 1.54-.12 2.36-.38c1.58-.51 4.49-1.66 6.43-3.78c3.5-3.86 1.48-8.92.62-11.08l-.24-.61c-4.16-12.23-10.5-23.76-16.1-33.94c-.12-.2-.23-.55-.38-.94c-.19-.53-.43-1.19-.78-1.93c-.45-.94-.91-1.71-1.31-2.38c-.3-.5-.58-.97-.77-1.36c-1.02-2.08-2.13-4.05-3.64-6.37c-.16-.25-.33-.55-.51-.87c-1.33-2.28-3.79-6.53-8.55-6.79c-.25-.01-.51-.02-.78-.02z"/><path fill="#fcc21b" d="M66.94 51.55c-3.9 11.46-7.86 23.23-9.71 35.24c-.23 1.5-1.23 4.65.15 5.73c1.03.79 2.82 1.23 4.09 1.41c1.05.15 1.08-.34 1.52-1.14c2.85-5.15 3.92-11.13 5.56-16.73c1.74-5.93 3.38-11.88 5.23-17.78c2.35-7.47 4.68-15.03 5.71-22.74c.11-.86.3-1.94-.22-2.5c-1.02-1.08-3.15-.99-4.54-.67c-1.84.43-2.66 3.78-3.42 5.6c-.88 2.09-1.61 4.06-2.24 6.24c-.38 1.34-1 2.6-1.37 3.95c-.33 1.17-.36 2.22-.76 3.39z"/><path fill="#f79329" d="M76.58 32.15c1.03 0 2.07.23 2.69.88c.51.55.32 1.64.22 2.5c-1.03 7.71-3.36 15.28-5.71 22.74c-1.85 5.89-3.49 11.84-5.23 17.78c-1.64 5.59-2.7 11.58-5.56 16.73c-.39.71-.46 1.16-1.19 1.16c-.1 0-.21-.01-.33-.02c-1.27-.17-3.06-.61-4.09-1.41c-1.38-1.07-.38-4.23-.15-5.73c1.85-12 5.81-23.78 9.71-35.24c.39-1.17.43-2.21.76-3.39c.37-1.35.99-2.61 1.37-3.95c.63-2.19 1.36-4.16 2.24-6.24c.76-1.81 1.58-5.17 3.42-5.6c.54-.12 1.19-.21 1.85-.21m0-6.02c-1.05 0-2.16.13-3.21.37c-4.65 1.09-6.35 5.7-7.25 8.18c-.13.34-.24.67-.36.94c-1.07 2.54-1.83 4.67-2.48 6.91c-.12.42-.3.92-.51 1.45c-.29.75-.61 1.6-.87 2.57c-.22.78-.34 1.48-.44 2.04c-.08.44-.14.79-.22 1.01c-3.74 10.98-7.98 23.44-9.96 36.25c-.02.16-.07.38-.13.62c-.46 2.27-1.56 7.59 2.51 10.77c2.3 1.77 5.36 2.4 6.99 2.62c.43.06.81.08 1.15.08c1.6 0 4.58-.54 6.39-4.13l.07-.15c2.5-4.51 3.75-9.25 4.95-13.84c.36-1.38.71-2.75 1.11-4.1c.56-1.94 1.13-3.89 1.69-5.84c1.12-3.9 2.28-7.92 3.5-11.82c2.62-8.31 4.87-15.83 5.94-23.75l.03-.22c.17-1.37.59-4.59-1.81-7.17c-1.21-1.28-3.41-2.79-7.09-2.79z"/><path fill="#fcc21b" d="M92.19 80.93c6.63-10.13 13.38-20.56 18.16-31.72c.6-1.39 2.35-4.21 1.28-5.58c-.8-1.02-2.42-1.9-3.61-2.38c-.98-.4-1.13.05-1.77.72c-4.04 4.28-6.55 9.81-9.53 14.83c-3.16 5.3-6.22 10.66-9.48 15.92c-4.14 6.65-8.26 13.39-11.18 20.61c-.32.8-.78 1.8-.4 2.47c.71 1.29 2.8 1.74 4.22 1.77c1.89.04 3.52-3 4.71-4.57c1.37-1.8 2.57-3.53 3.72-5.49c.71-1.21 1.62-2.27 2.31-3.49c.6-1.05.9-2.05 1.57-3.09z"/><path fill="#f79329" d="M107.41 41.1c.17 0 .36.05.62.15c1.19.48 2.81 1.35 3.61 2.38c1.07 1.38-.67 4.19-1.28 5.58c-4.78 11.16-11.53 21.59-18.16 31.72c-.67 1.03-.97 2.04-1.58 3.1c-.69 1.21-1.6 2.28-2.31 3.49c-1.15 1.96-2.34 3.69-3.72 5.49c-1.18 1.55-2.8 4.57-4.67 4.57h-.04c-1.42-.03-3.5-.48-4.22-1.77c-.37-.67.08-1.67.4-2.47c2.92-7.22 7.04-13.96 11.18-20.61c3.25-5.25 6.32-10.61 9.48-15.92c2.98-5.02 5.5-10.55 9.53-14.83c.48-.5.68-.88 1.16-.88m0-6.01c-3.11 0-4.86 1.99-5.42 2.64l-.12.13c-3.52 3.74-5.9 8.02-8.21 12.16c-.7 1.25-1.39 2.5-2.11 3.71c-1.07 1.8-2.14 3.61-3.2 5.43c-2.02 3.43-4.11 6.97-6.22 10.39c-4.57 7.34-8.61 14.03-11.65 21.52l-.08.21c-.51 1.29-1.72 4.31-.03 7.41c1.67 3 5.16 4.81 9.38 4.9h.16c4.66 0 7.31-3.83 8.88-6.12c.21-.3.4-.59.58-.83c1.61-2.11 2.91-4.04 4.12-6.07c.22-.38.53-.82.86-1.28c.46-.66.98-1.4 1.48-2.27c.42-.71.71-1.35.94-1.87c.19-.41.33-.74.47-.94c6.34-9.68 13.53-20.68 18.64-32.63c.07-.14.16-.34.27-.56c1.02-2.09 3.42-6.99.22-11.09c-1.78-2.28-4.58-3.65-6.09-4.26c-.97-.39-1.92-.58-2.87-.58z"/><path fill="#fcc21b" d="M84.28 80.33c4.6-11.2 9.26-22.71 11.85-34.57c.33-1.48 1.51-4.58.2-5.72c-.98-.86-2.74-1.41-4-1.65c-1.04-.21-1.1.27-1.59 1.04c-3.17 4.96-4.59 10.87-6.57 16.36c-2.1 5.81-4.1 11.65-6.31 17.42c-2.8 7.31-5.57 14.72-7.08 22.35c-.17.86-.42 1.92.06 2.51c.96 1.13 3.08 1.18 4.48.94c1.87-.31 2.89-3.61 3.77-5.38c1-2.03 1.85-3.95 2.61-6.09c.47-1.32 1.16-2.54 1.61-3.86c.4-1.16.51-2.2.97-3.35z"/><path fill="#f79329" d="M91.91 38.33c.12 0 .26.02.43.05c1.25.25 3.02.8 4 1.65c1.31 1.15.13 4.24-.2 5.72c-2.59 11.86-7.26 23.37-11.85 34.57c-.46 1.14-.56 2.19-.96 3.34c-.45 1.32-1.14 2.55-1.61 3.86c-.76 2.14-1.61 4.06-2.61 6.09c-.88 1.76-1.9 5.06-3.77 5.38c-.41.07-.89.11-1.39.11c-1.17 0-2.42-.26-3.09-1.06c-.48-.58-.23-1.65-.06-2.51c1.51-7.63 4.28-15.04 7.08-22.35c2.21-5.77 4.21-11.61 6.31-17.42c1.98-5.48 3.4-11.39 6.57-16.36c.4-.62.5-1.07 1.15-1.07m0-6.01c-1.81 0-4.35.65-6.16 3.73l-.08.15c-2.77 4.34-4.3 9-5.78 13.5c-.45 1.36-.9 2.71-1.37 4.04c-.69 1.91-1.38 3.83-2.05 5.74c-1.36 3.82-2.75 7.76-4.23 11.58c-3.1 8.1-5.8 15.45-7.37 23.33l-.03.18c-.27 1.37-.9 4.58 1.36 7.31c1.77 2.12 4.51 3.25 7.74 3.25c.81 0 1.61-.07 2.4-.2c4.7-.78 6.67-5.3 7.73-7.72c.15-.33.28-.64.41-.91c1.17-2.37 2.1-4.52 2.89-6.74c.15-.41.37-.9.6-1.42c.33-.73.71-1.57 1.04-2.52c.26-.76.44-1.47.57-2.03c.1-.43.19-.78.28-1c4.4-10.7 9.39-22.87 12.15-35.54c.04-.16.1-.37.16-.61c.61-2.24 2.03-7.49-1.87-10.92c-2.18-1.9-5.2-2.72-6.8-3.04c-.53-.11-1.06-.16-1.59-.16z"/><path fill="#fcc21b" d="M51.64 53.49c.57 12.09 1.22 24.5 3.9 36.35c.33 1.48.56 4.78 2.24 5.27c1.25.37 3.07.12 4.32-.19c1.03-.25.88-.71 1.01-1.62c.76-5.83-.45-11.79-.98-17.6c-.54-6.15-1.21-12.29-1.66-18.46c-.54-7.81-1.17-15.69-3.03-23.25c-.21-.85-.43-1.92-1.12-2.25c-1.34-.62-3.29.24-4.46 1.04c-1.56 1.08-1.09 4.5-1.14 6.47c-.05 2.27 0 4.37.21 6.63c.13 1.39.03 2.79.18 4.18c.11 1.21.47 2.21.53 3.43z"/><path fill="#f79329" d="M55.26 31.53c.38 0 .73.06 1.05.21c.68.33.9 1.4 1.12 2.25c1.87 7.56 2.49 15.44 3.03 23.25c.45 6.17 1.12 12.31 1.66 18.46c.54 5.81 1.74 11.77.98 17.6c-.12.91.02 1.37-1.01 1.62c-.8.2-1.86.38-2.83.38c-.54 0-1.05-.06-1.49-.18c-1.67-.49-1.91-3.79-2.24-5.27C52.85 78 52.21 65.6 51.63 53.5c-.06-1.23-.41-2.22-.54-3.43c-.15-1.39-.05-2.79-.18-4.18c-.21-2.26-.26-4.36-.21-6.63c.05-1.97-.42-5.39 1.14-6.47c.9-.61 2.24-1.26 3.42-1.26m0-6.01c-3.01 0-5.56 1.45-6.82 2.32c-3.93 2.72-3.81 7.64-3.75 10.28c.01.36.02.71.01 1.01c-.06 2.67.02 5 .23 7.32c.04.44.05.97.05 1.54c.01.81.03 1.73.14 2.74c.08.79.22 1.49.33 2.05c.09.44.16.79.18 1.03c.54 11.57 1.17 24.7 4.03 37.36c.04.16.08.39.11.63c.4 2.28 1.33 7.63 6.31 9.09c.95.28 2.02.42 3.17.42c1.7 0 3.26-.3 4.27-.55c1.85-.44 5.08-1.9 5.5-6.5l.02-.17c.67-5.12.08-9.99-.48-14.7c-.18-1.42-.34-2.83-.47-4.23c-.19-2.11-.39-4.23-.6-6.36c-.38-3.93-.77-8-1.05-11.98c-.61-8.64-1.27-16.44-3.2-24.26l-.04-.17c-.33-1.35-1.12-4.51-4.29-6.04c-1.17-.58-2.37-.83-3.65-.83z"/><path fill="#fcc21b" d="M46.62 76.51c-1.24-12.05-2.56-24.39-5.88-36.08c-.4-1.46-.82-4.74-2.52-5.14c-1.27-.3-3.08.05-4.3.43c-1.01.31-.85.76-.92 1.67c-.44 5.87 1.09 11.75 1.95 17.52c.88 6.12 1.88 12.21 2.66 18.34c.98 7.76 2.04 15.6 4.32 23.04c.25.83.54 1.89 1.23 2.18c1.38.55 3.27-.41 4.39-1.29c1.5-1.16.85-4.55.79-6.51c-.08-2.27-.24-4.36-.57-6.61c-.22-1.38-.18-2.78-.41-4.16c-.22-1.2-.61-2.16-.74-3.39z"/><path fill="#f79329" d="M37.12 35.19c.39 0 .76.03 1.09.11c1.7.4 2.12 3.68 2.52 5.14c3.33 11.68 4.64 24.03 5.88 36.08c.14 1.22.53 2.19.73 3.39c.23 1.38.19 2.79.41 4.16c.33 2.25.5 4.34.57 6.61c.06 1.97.71 5.36-.79 6.51c-.89.7-2.28 1.45-3.5 1.45c-.31 0-.61-.05-.89-.16c-.69-.29-.98-1.35-1.23-2.18c-2.28-7.44-3.34-15.28-4.32-23.04c-.78-6.13-1.78-12.23-2.66-18.34c-.86-5.77-2.39-11.66-1.95-17.52c.07-.91-.09-1.36.92-1.67c.91-.28 2.13-.54 3.22-.54m0-6.02c-2.05 0-4 .51-4.98.81c-1.84.56-4.95 2.19-5.14 6.79l-.01.17c-.38 5.17.47 10.02 1.3 14.71c.25 1.39.5 2.78.71 4.16c.31 2.13.63 4.3.96 6.45c.58 3.86 1.19 7.86 1.68 11.76c1.09 8.6 2.17 16.36 4.53 24.06l.05.16c.4 1.33 1.36 4.46 4.64 5.82c1.04.42 2.1.62 3.19.62c3.23 0 5.89-1.7 7.2-2.72c3.75-2.91 3.37-7.81 3.16-10.44c-.03-.36-.06-.71-.06-1c-.09-2.65-.29-4.97-.64-7.31c-.08-.45-.1-.98-.15-1.55c-.05-.8-.11-1.71-.27-2.7c-.13-.81-.31-1.5-.45-2.04c-.12-.44-.21-.79-.23-1.03c-1.18-11.51-2.52-24.6-6.08-37.07c-.04-.15-.09-.37-.14-.61c-.52-2.26-1.75-7.57-6.8-8.75c-.77-.2-1.6-.29-2.47-.29z"/><path fill="#ed6c30" d="M113.17 61.73c-.97-1.09-2.47-1.53-3.88-1.68c-1.78-.19-3.56-.37-5.34-.54c-2.07-.19-4.17-.39-6.24-.44c-.3 0-.59-.01-.88-.01c-1.89 0-4.61-.36-5.61 1.83c-.52 1.16-.86 2.5-1.26 3.71c-2.27 6.89-10.43 7.18-16.5 7.01c-7.88-.23-16.7 1.32-24.35-.67c-3.43-.9-6.79-2.79-7.96-6.34c-.6-1.79-.97-4.54-2.95-5.3c-1.52-.58-3.23-.27-4.81-.23c-2.08.05-4.17.25-6.24.44c-1.78.17-3.56.35-5.34.54c-1.41.15-2.91.59-3.88 1.68c-1.14 1.29-.17 2.95.06 4.44c1 6.42 3.3 12.84 4.75 19.2c1.72 7.5 3.45 14.99 5.45 22.42c1.01 3.7 2.09 7.38 3.25 11.04c.57 1.8 1.42 7.13 3.02 8.39c1.45 1.14 3.92-.43 5.45-.62c1.9-.24 3.83-.52 5.73-.72c15.2-1.65 30.38-1.25 45.52.72c1.53.2 4 1.76 5.45.62c1.6-1.26 2.45-6.59 3.02-8.39c1.17-3.65 2.25-7.33 3.25-11.04c2.01-7.43 3.74-14.92 5.45-22.42c1.45-6.36 3.76-12.78 4.77-19.2c.25-1.49 1.22-3.15.07-4.44z"/></svg>